<?xml version="1.0" encoding="UTF-8"?>
<svg xmlns="http://www.w3.org/2000/svg" id="a" width="4500" height="3000">
  <defs>
    <clipPath id="b">
      <path d="M2435 1064h672v548h-672z" class="j"/>
    </clipPath>
    <clipPath id="c">
      <path d="M1785 507h619v525h-619z" class="v"/>
    </clipPath>
    <clipPath id="d">
      <path d="M1733 1064h672v548h-672z" class="af"/>
    </clipPath>
    <clipPath id="e">
      <path d="M3139 486h854v1380h-854z" class="v"/>
    </clipPath>
    <style>.f{fill:#4450e4}.g{fill:#fff}.h{fill:#3897e9}.i{fill:#ff9a95}.j{fill:#ffb5d6}.l{fill:#ffba14}.m{fill:#d4d8f3}.n{fill:#ff7bac}.p{fill:#ef5996}.r{fill:#aeddff}.s{fill:#838ee8}.t{fill:#ffe59d}.u{fill:#ffc001}.v{fill:none}.w{fill:#ffcec7}.y{fill:#9fd3fb}.z{fill:#3895ea}.aa{fill:#2d79ba}.ab{fill:#dca000}.ac{fill:#5b71d8}.ad{fill:#241614}.af{fill:#ececec}.ag{fill:#27191c}</style>
  </defs>
  <path d="M4252 2607c-5 5-4010-9-4009 5-4 6 4038 20 4009-5Z" class="ag"/>
  <path d="M4120 458H1608c-57 0-104 47-104 105v1520c0 57 47 104 104 104h2512c57 0 104-47 104-104V563c0-58-47-105-104-105Zm12 1435a102 102 0 0 1-102 102H1698c-56 0-102-46-102-102V672c0-56 46-101 102-101h2372c34 0 62 27 62 61v1261Z" class="h"/>
  <path d="M3427 2480h-957l-70-290h957l70 290Z" class="af"/>
  <path d="M3652 2507v99H2076v-99c0-16 13-29 29-29h365v2h957v-2h196c16 0 29 13 29 29Z" class="y"/>
  <path d="M3357 2190h-957l9 37h957l-9-37Z" class="m"/>
  <path d="M2942 2092c-2 103-154 103-156 0 2-103 154-103 156 0Z" class="af"/>
  <path d="M4129 632v1261a98 98 0 0 1-99 99H1698c-54 0-99-44-99-99V672c0-54 45-98 99-98h2372c33 0 59 26 59 58Z" class="g"/>
  <path d="M2397 2189h3l70 287-3 1zM3357 2189h3l70 287-3 1z" class="ag"/>
  <path d="M4120 2190H1608c-59 0-107-48-107-107V563c0-59 48-108 107-108h2512c59 0 107 49 107 108v1520c0 59-48 107-107 107ZM1608 458c-57 0-104 47-104 105v1520c0 57 47 104 104 104h2512c57 0 104-47 104-104V563c0-58-47-105-104-105H1608Z" class="ag"/>
  <path d="M4030 1995H1698c-56 0-102-46-102-102V672c0-56 46-101 102-101h2372c34 0 62 27 62 61v1261a101 101 0 0 1-102 102ZM1698 574c-54 0-99 44-99 98v1221c0 55 45 99 99 99h2332c53 1 100-45 99-99V632c0-32-26-58-59-58H1698ZM2864 2172c-105-2-105-158 0-160 105 2 105 158 0 160Zm0-157c-101 2-101 152 0 154 101-2 101-152 0-154ZM3655 2609H2073v-102c0-18 14-32 32-32h1518c18 0 32 14 32 32v102Zm-1579-3h1576v-99c0-16-13-29-29-29H2105c-16 0-29 13-29 29v99Z" class="ag"/>
  <path d="M1614 2391v205c2 32-1317 1-1328 11-7 0-12-5-12-11v-205c-2-32 1318-1 1329-11 6 0 11 5 11 11Z" class="l"/>
  <path d="M387 2380h32v227h-32zM568 2380h32v227h-32zM748 2380h32v227h-32zM928 2380h32v227h-32zM1109 2380h32v227h-32zM1289 2380h32v227h-32zM1469 2380h32v227h-32z" class="t"/>
  <path d="M1603 2609H286c-7 0-13-6-13-13v-205c0-7 6-13 13-13h1317c7 0 13 6 13 13v205c0 7-6 13-13 13ZM286 2381c-6 0-10 4-10 10v205c-2 28 1317 0 1327 10 5 0 10-4 10-10v-205c2-28-1318 0-1327-10Z" class="ag"/>
  <path d="M421 2609h-35v-231h35v231Zm-32-3h29v-225h-29v225ZM601 2609h-35v-231h35v231Zm-32-3h29v-225h-29v225ZM781 2609h-35v-231h35v231Zm-32-3h29v-225h-29v225ZM962 2609h-35v-231h35v231Zm-32-3h29v-225h-29v225ZM1142 2609h-35v-231h35v231Zm-32-3h29v-225h-29v225ZM1322 2609h-35v-231h35v231Zm-32-3h29v-225h-29v225ZM1503 2609h-35v-231h35v231Zm-32-3h29v-225h-29v225Z" class="ag"/>
  <path d="M335 2222c1 59-18 155 70 158h741c-39 0-70-32-70-70 1-59-17-154 68-158H405c-39 0-70 31-70 70ZM1176 2222c-6 165 14 160 169 158-39 0-70-32-70-70 1-59-17-154 68-158-60 2-164-21-167 70Z" class="y"/>
  <path d="M1144 2152h102c-38 0-70 31-70 70 2 59-17 155 70 158-59-3-168 20-170-70 1-59-17-154 68-158Z" class="h"/>
  <path d="M1344 2203h330v126h-329c-11 0-19-9-19-19v-88c0-11 8-19 18-19Z" class="g"/>
  <path d="M1343 2152h385c6 0 11 5 11 11v28c0 7-5 12-11 12h-384c-10 0-18 8-18 19v88c0 10 8 19 19 19h383c6 0 11 5 11 11v28c0 7-5 12-11 12h-383c-39 0-70-32-70-70 1-59-18-154 68-158Z" class="h"/>
  <path d="M1456 2233h218v9h-280v-9h62ZM1674 2253v9h-233v-9h233ZM1473 2273h201v10h-201z" class="m"/>
  <path d="M1146 2381H405c-40 0-72-32-72-71 1-61-17-157 72-160h739v3c-37 1-66 31-66 69 1 58-18 153 68 156v3Zm-741-228c-86 3-67 99-69 157 0 37 31 68 69 68h720c-67-18-48-105-50-156-1-31 21-60 50-69H405ZM1345 2381c-157 2-176 7-170-159-1-38 32-72 70-72h98v3c-37 1-67 31-67 69 2 58-17 153 69 156v3Zm-100-228c-84 4-66 100-67 157 3 82 89 68 146 68-67-18-48-105-51-156 0-31 22-60 51-69h-79Z" class="ag"/>
  <path d="M1246 2381c-156 2-178 9-171-159-1-38 31-72 69-72h102v3c-38 0-68 31-68 69 1 58-18 153 68 156v3Zm-100-228c-86 3-67 99-68 157 2 82 91 68 148 68-68-18-49-105-51-156-1-31 21-60 51-69h-80ZM1676 2330h-331c-12 0-21-9-21-20v-88c0-11 9-20 20-21h332v129Zm-332-126c-10 1-17 8-17 18v88c0 9 8 17 18 17h328v-123h-329Z" class="ag"/>
  <path d="M1728 2381h-383c-40 0-72-32-72-71 4-36-12-112 21-138 13-14 30-21 49-22h385c19 0 11 30 12 41 0 7-5 13-12 13h-383c-10 0-18 8-18 18v88c0 9 8 17 18 17h383c7 0 12 6 12 13-1 11 7 41-12 41Zm-383-228c-86 3-67 99-69 157 0 37 31 68 69 68h383c5 0 9-4 9-10v-28c0-5-4-10-9-10h-383c-12 0-21-9-21-20v-88c0-11 9-20 20-21h384c5 0 9-4 9-10v-28c0-5-4-10-9-10h-383Z" class="ag"/>
  <path d="M1049 2042c0 46-40 84-89 84H315v-168h645c49 0 89 37 89 84Z" class="g"/>
  <path d="M315 1984h477v11H315zM315 2042h665v11H315zM315 2065h229v11H315z" class="af"/>
  <path d="M1074 2042c0 46-30 87-74 103-13 4-26 7-40 7H269v-26h691c49 0 89-38 89-84s-40-84-89-84H269v-26c35 6 734-16 748 15 35 19 57 55 57 95Z" class="p"/>
  <path d="M1755 2042c0 61-49 110-110 110H960c150-3 150-217 0-220h685c61 0 110 49 110 110Z" class="n"/>
  <path d="M1457 2152h-175c48-66 48-140 0-220h175c48 80 48 154 0 220Z" class="p"/>
  <path d="M1645 2153c-1-1-696 3-696-1 0-5 695 0 696-2a108 108 0 0 0 0-216c-1-2-696 2-696-2l2-1h694a111 111 0 0 1 0 222ZM315 2128c-4 0 0-169-2-170l2-2c4 0 0 169 1 170l-1 2Z" class="ag"/>
  <path d="M960 2153H268v-28h692c48 0 87-37 87-83s-39-83-87-83H268v-28h692c64 0 116 50 116 111s-52 111-116 111Zm-689-3h689c62 0 113-48 113-108s-51-108-113-108H271v22h689c50 0 90 39 90 86s-40 86-90 86H271v22Z" class="ag"/>
  <path d="M4081 315v1583c0 20-17 37-37 37H1684c-20 0-37-17-37-37V315c0-20 17-37 37-37h2360c20 0 37 17 37 37Z" class="g"/>
  <path d="M4081 315v91H1647v-91c0-20 17-37 37-37h2360c20 0 37 17 37 37Z" class="s"/>
  <path d="M4043 342c0 18-28 18-28 0s28-18 28 0ZM3993 342c0 18-27 18-28 0 1-18 28-18 28 0ZM3944 342c0 18-28 18-28 0s28-18 28 0ZM1704 314h98v10h-98zM1704 337h98v10h-98zM1704 361h98v10h-98z" class="g"/>
  <path d="M4044 1937H1684c-21 0-38-18-38-39V315c0-21 17-38 38-38h2360c21 0 39 17 39 38v1583c0 21-18 39-39 39ZM1684 280c-19 0-35 16-35 35v1583c0 20 16 36 35 36h2360c20 0 36-16 36-36V315c0-19-16-35-36-35H1684Z" class="ag"/>
  <path d="M4081 408c-1-2-2436 3-2435-2-2-1 2444-5 2435 2Z" class="ag"/>
  <path d="M2435 1064h672v548h-672z" class="j"/>
  <g style="clip-path:url(#b)">
    <path d="M2500 2459c0 1 1 4 4 4h193c17 0 8-45 10-55 0-3-1-5-3-4l-11 8c-17 17-83 7-105 10-13-1-9-17-15-22-2-7-69 49-71 49-3 2-3 7-2 10ZM2982 2463c1 0 4 1 6-1l132-139c12-13-26-38-33-46-2-2-4-3-5 0l-1 13c-1 11-6 20-13 27l-53 56c-8 9-18-5-26-4-6-3-12 84-13 85-1 3 2 7 6 9Z" class="f"/>
    <path d="M2578 2402c2 5 2 17 10 17h77c13 1 26-8 36-17v-41h-88c0 23-17 34-35 41ZM2996 2323c9 16 3 29-2 43 5 2 14 11 19 5l53-56c10-9 12-25 13-38l-30-28-61 64 8 10ZM2419 1661c10 3 21-7 28-13 1-2 4-8 7-7 2 2-4 7-5 9-8 11-16 21-19 33 4 19 27-28 30-32l2-1 1 2-22 34c-3 5 1 16 8 10l25-37 2-1c4 1-20 33-20 34 3 17 19-4 29-19 2-3 5-5 9-6 15-3 30-15 40-29l-39-46c-16 5-32 10-49 12-5 1-15-1-17 3-2 6 5 12 10 13 6 2 13 0 19-2l18-4c2 0 2 3 0 3-23 3-38 16-55 36-2 2-4 5-2 8ZM2997 1796c5 4 13-1 16-6 3-6 2-13 2-19l3-1c3 12 8 36 24 33 7-5 2-10 5-11 2 0 5 3 7 2 5-3 3-9 3-13l2-1c2 2 8 4 9-1 2-1-2-10 2-9 13 1 12-17 8-26l-16-50-61 8c1 28 2 60-4 84-1 6-2 9 0 10Z" class="w"/>
    <path d="m3001 1702 1 12 61-8h3l-4-12-61 8Z" class="i"/>
    <path d="M2713 1222c14-35 58-23 67-43 4 5 9 17 12 24-4 16-7 24 0 42 2-37 19-37 20-37 27 5 18 39-7 35-7 4-14 45 4 73-33 34-65 31-74-3v-3l3-18v-1c-8-3-14-9-19-16l-1 1 1-1c-8-11-6-37-7-50l1-3Z" class="w"/>
    <path d="M2735 1306c14-4 28-7 39-16 3-3 1-8-4-7-11 1-21 7-33 8l-2 15ZM2744 1253c5 15 19 11 22-3h-1l-21 2v1ZM2482 1596l3 3 41 48 8-9-39-46-13 4Z" class="i"/>
    <path d="m2489 1580 48 57c2 2 8 13 12 11 8-4 32-14 58-29 9-126-4-137 25-211-51 86-133 150-143 172Z" class="u"/>
    <path d="m3049 2249-61 64 8 10 62-66-9-8ZM2611 2373h90v-12h-88l-2 12Z" class="i"/>
    <path d="M2603 2355c0 2 1 3 3 3h101c2 0 3-1 3-3l48-263c-12-39-33-127-23-269 0-2 3-2 3 0l1 10c22 286 31 292 234 487 4 4 9-6 12-8l72-76c6-4-102-184-102-188l-21-341c-37 1-159-3-194-2-35-1-73 4-106-7-70 243-88 406-31 657Z" class="n"/>
    <path d="M2625 1499c2 54 1 123 1 179 2 9 4 15 11 19 33 8 69 4 103 5 35-1 158 4 195 1 20-8 8-43 7-61-39-65-128-150-124-157a548 548 0 0 1 175 213l4 2 66-9c3 0 6-2 6-5 5-112-38-234-107-301-39-39-96-64-151-67-31 32-67 36-78-2-88 31-112 97-108 183Z" class="u"/>
    <path d="M2576 2403c-9-6 36-7 34-44 0-2 3-1 3 0 0 27-18 37-37 44ZM2703 2404l-2-1a3498 3498 0 0 1 1-45l2 1a3493 3493 0 0 0-1 45Z" class="ag"/>
    <path d="M2697 2466h-193c-9 0-11-15-4-20l67-49h7c7 3 4 22 14 22h77c13 1 27-9 37-17 4-3 9 1 8 6v40c0 10-6 18-13 18Zm0-3c6 0 10-6 10-15 0-2 2-44-1-44-1-2-12 8-13 8-8 7-18 10-28 10h-77c-13-1-9-17-15-22-2-7-69 49-71 49-4 3-4 13 2 14h193ZM2992 2369c-1 0-2-1-1-2 7-18 12-36-6-53-1-1 1-3 2-2 19 18 15 40 5 57ZM3081 2278c-11-8-25-22-33-30-2-1 1-3 2-2l32 29c1 1 0 3-1 3Z" class="ag"/>
    <path d="M2985 2466c-6 0-13-6-12-13l10-82c7-15 21 8 30 0l53-56c10-9 12-25 13-39 1-5 7-5 10-2l30 28c7 7 9 17 4 23l-133 139c-1 2-3 2-5 2Zm1-94-10 82c-1 5 7 12 12 8l132-139c5-5 3-13-3-18l-30-28c-2-2-4-3-5 0-1 14-3 31-14 40l-53 56c-9 11-23-12-29-1Zm136-48ZM2822 1229l-1-1c-2-5-6-5-12-5-7-5 13-5 15 4l-2 2Z" class="ag"/>
    <path d="M2811 1232c-2 0-2-2 0-3 6-1 4-7 7-7 4 3-3 10-7 10ZM2753 1237c-10-1-1-12 1-17 1-1 3 0 2 2l-4 8c-1 2-1 4 2 4 2 0 4-3 5-1 1 3-3 4-6 4ZM2754 1266c-7 0-15-9-13-16 1-2 22-2 24-3 11 2-4 20-11 19Zm-10-14c-2 2 4 9 7 10 7 4 13-6 15-11 1-2-22 1-22 1Zm0-2ZM2924 1318l-2-1c2-25-18-30-28-47-3-13 1-25-8-38-4-7-11-15-17-21-1-3-8-8-7-11 4-1 7 7 10 9l17 22c9 13 5 24 8 37 4 8 11 13 17 19 8 8 12 18 11 30l-1 1Z" class="ag"/>
    <path d="M2809 1247c-2-1-5 0-5-2l2-2c5 1 11 0 15-3 14-10 8-30-9-32-2 0-1-3 1-3 28 5 23 42-4 42Z" class="ag"/>
    <path d="M2733 1315c-2 0 0-4 0-6l2-17c-29-13-25-41-26-67-2-36-4-40 17-62 26-22 68-13 82 19 2 5 9 23 5 26l-2-1c0-8-2-16-6-23a50 50 0 0 0-78-19c-18 15-17 39-15 60 1 26-3 53 26 66l-3 19c0 1 1 5-2 5ZM2707 2361h-101c-3 0-6-2-6-5-7-40-42-241-39-314 6-79 56-314 73-346-69 242-89 406-31 659 0 2 1 3 3 3h101c2 0 3-1 3-3 2-1 52-301 56-300 5 0-54 299-53 301 0 3-3 5-6 5Z" class="ag"/>
    <path d="M2579 2078c-6-12-1-74 8-84-4 26-11 55-7 82l-1 2ZM2599 2086c-7-7-5-53 3-59 1 0 2 1 1 2-6 17-7 37-3 55l-1 2ZM2976 2323c-36-29-178-157-205-241-23-82-33-213-36-259 0-2 3-2 3 0 23 290 27 298 235 497 2 1 4 1 5-1l79-83c2-1 2-3 1-4l-103-184-21-343c8-11 21 342 24 342l103 183c1 3 1 6-1 8l-80 83c-1 2-3 2-4 2ZM2811 1318c-21-26-13-71-6-75l1 3c-4 10-12 38 6 69l-1 3Z" class="ag"/>
    <path d="m2928 1707-188-2c-35-1-71 4-105-6-7-4-10-11-12-21 1-50 1-131-1-179-1-40 3-98 32-134 21-27 51-41 79-53 2-1 3 2 1 3-42 15-86 46-99 93-10 31-10 65-10 91 2 48 2 129 1 179 2 9 4 15 11 19 33 8 69 4 103 5 35-1 158 4 195 1 18-7 9-39 8-56l-5-36c0-2 3-2 3 0l4 32c2 21 14 64-17 64Z" class="ag"/>
    <path d="M2764 1344c-22 2-39-38-29-31 9 34 41 37 75 2 13-2-35 33-46 29Z" class="ag"/>
    <path d="M2996 1703c-2 0-4-2-6-4a546 546 0 0 0-174-211c-1-1 1-4 2-3a530 530 0 0 1 162 187c4 5 13 29 17 28l67-9c3 0 5-2 5-5 5-174-84-355-260-370 179 3 270 209 263 370 0 4-3 8-7 8l-69 9ZM2548 1651c-2 5-60-69-62-69-2-3-2-7 1-9 17-13 110-108 158-191-41 93-147 176-156 198l56 67c8 3 35-14 61-28 4-1 18-13 20-11v3c-23 15-67 37-78 40ZM3039 1806c-16-1-21-21-24-34a2 2 0 0 1 3-1c1 8 4 15 8 22 2 8 16 16 20 5 2-3-1-5 1-6 7 1-1 16-8 14Z" class="ag"/>
    <path d="M3053 1797c-3 0-8-2-6-5h2c7 6 10-4 8-10 2-9 8 15-4 15Z" class="ag"/>
    <path d="M3065 1785c-3 0-10-1-8-5h2c7 5 12 1 9-8 3-9 8 15-3 13Z" class="ag"/>
    <path d="M3071 1773c-2 1-4-3-1-3 13 1 12-17 8-26l-12-37c-1-3-8-20-2-15l17 51c5 10 5 29-10 30ZM3001 1801c-12-1-7-14-5-23 5-21 0-57 3-79 6 21 2 59 0 80-1 5-5 15-2 17 5 4 13-1 16-6 3-6 3-13 2-18 5-10 8 28-14 29ZM2433 1691c-7 0-7-10-4-15s18-34 25-35v2c-9 12-17 23-22 35-3 4-2 13 4 9 10-11 17-24 24-36a2 2 0 0 1 3 1c-6 11-13 22-21 32-1 3-5 7-9 7Z" class="ag"/>
    <path d="M2422 1665c-23-5 21-38 26-42-10 3-25-6-22-17 3-7 13-4 20-5 12-1 24-5 36-8 3 0 13-6 15-3 0 3-11 4-14 6-12 3-24 7-37 8-5 1-15-1-17 3-2 6 5 12 10 13 6 2 13 0 19-2l1 3c-13 7-30 20-40 36-2 15 31-9 33-16h2c2 3-4 7-5 9-7 7-17 14-27 15ZM2445 1701c-13-1-6-24-3-15-2 3-3 10 2 11 7 7 32-50 32-37-6 7-21 41-31 41Z" class="ag"/>
    <path d="M2460 1701c-7 1-9-16-4-10 2 18 19-2 29-18 2-3 5-5 9-6 15-4 28-13 41-30 1-1 3 0 2 2a75 75 0 0 1-43 31c-3 0-5 2-7 5-8 11-17 25-27 26ZM2458 1621c-2 0-2-3 0-3l18-4c2 0 2 3 0 3l-18 4ZM2715 1270c4 9 12 17 21 22l-3 22-8 3c-13-13-21-33-10-47ZM2732 1223c-8 0-8-13 0-13s8 13 0 13ZM2776 1207c8 0 8 13 0 13-9 0-9-13 0-13Z" class="ag"/>
    <path d="M2694 1194c2-46 62-64 99-49 4-57 92-6 59 32 9 6 13 17 14 28 2 18 21 29 21 48 0 6-2 13 1 18 21 20 35 45 22 74-31-17-65-27-99-29a81 81 0 0 1-6-71c27 4 37-32 8-38l-1-2v3s-17-2-20 37c-7-18-4-26 0-42-3-7-8-19-12-24-9 20-54 8-67 43l-11 23c-7-16-10-34-8-51ZM2607 1620l18-11c2-68-8-139 9-206-29 62-19 96-27 217ZM2737 1833c3 34 11 147 29 223l-7 39c-12-37-34-126-24-272l2 10ZM2893 1554c17 18 33 37 47 57l4 34c-41-65-128-158-128-158h3c28 19 52 42 74 67Z" class="ag"/>
  </g>
  <path d="M3109 1614h-675v-552h675v552Zm-672-3h669v-546h-669v546Z" class="ag"/>
  <path d="M3137 485h858v1383h-858z" class="y"/>
  <path d="M3996 1869h-860V483h860v1386Zm-857-3h854V486h-854v1380Z" class="ag"/>
  <path d="M1733 485h672v549h-672z" class="m"/>
  <path d="M2407 1035h-675V483h675v552Zm-672-3h669V486h-669v546Z" class="ag"/>
  <g style="clip-path:url(#c)">
    <path d="M1898 1925c9 22 40 27 75 19 30-6 80-43 100-68 2-3 7-1 7 2v65c0 3 3 5 6 5 4-1 19 3 18-5-1-28 3-114-9-135-2-4-6-3-7 0-8 25-24 49-49 71-38 31-89 74-108 29-9 4-32 7-33 17Z" class="n"/>
    <path d="M1934 1907c16 41 66 1 103-30 27-23 39-49 51-74 7-105 21-224 30-330-15 0-136 11-153 8 3 76 10 133 21 214 10 74 42 180-52 212Z" class="w"/>
    <path d="M2381 1917c22 9 47-10 66-41 16-25 24-87 19-119-1-4 4-6 7-4l47 45c2 2 5 1 7-1 2-3 15-11 9-17-21-18-81-80-104-86-3-1-6 2-4 5 12 23 18 51 17 84-4 49-8 116-54 98-3 10-17 28-10 36Z" class="n"/>
    <path d="M2146 1472c26 95 154 235 205 276 33 21 70 84 42 130 40 17 46-47 49-95 2-35-9-62-18-88-16-34-130-194-126-231l-152 8Z" class="w"/>
    <path d="m2298 1464-152 8 2 7 151-8-1-7ZM1965 1481v7c16 3 138-8 153-8v-7c-15 0-136 11-153 8Z" class="i"/>
    <path d="m2342 1440 7 63a46 46 0 0 0 62 38l216-81c18-6 37-15 42-35 13-29-28-69-41-92l-133 50c3 9 14 26 0 31-14 6-17-15-21-23l-132 49Z" class="s"/>
    <path d="m2332 1352 9 85 132-49c-3-8-8-20 3-24 12-4 16 8 18 16l132-49-48-71c-18-25-45-23-70-11l-113 42c-32 12-66 18-63 61Z" class="ac"/>
    <path d="m2473 1377 11 30c3 10 19 4 15-6l-11-29c-4-10-19-4-15 5Z" class="m"/>
    <path d="M2462 1232c12 4 22 10 29 20l12-4a68 68 0 0 0-42-29c1 5 2 9 1 13ZM2380 1293l12-4c-1-10 1-21 6-30l-1-3c0 8-8 17-16 18-2 6-2 13-1 19Z" class="s"/>
    <path d="m2363 1109 15 48c2 19 5 73-2 103-5 16 11 11 16 3 3-6 3-13 2-19 0-1 2-2 3-1v1c3 11 9 35 24 31 8-5 3-10 5-11h2l5 2c4-3 4-8 3-12v-2h1c8 4 13 3 10-9l1-1c12 1 13-16 10-24l-23-50-17-35 1-2c3 0 3 5 5 7l-6-49-55 20Z" class="w"/>
    <path d="m1988 1189 69 16c2 1 4-1 4-3 6-133 8-365 9-434-82 46-84 121-74 206a576 576 0 0 1-11 210c0 2 1 5 3 5Z" class="n"/>
    <path d="m2363 1109 2 6 54-18-1-8-55 20Z" class="i"/>
    <path d="M2132 933c4 50 46 194 70 273 0 2 2 3 4 3l118-28c6-2 11-8 10-15l-22-121c-38-69-77-101-142-144 85 37 142 131 181 205 1 2 2 3 4 2l5-2 59-20c2-1 9-2 8-6-20-117-83-302-232-322-23 29-73 102-63 175Z" class="n"/>
    <path d="M1959 1476c4 8 136-6 145-5l37-2 157-8c13-1 23-13 22-26l-14-247-101 24c-3 0-5-2-6-5l-10-32-8-28c-38 7-78 13-116 15-2 67 6 46-75 31-18 83-31 166-47 249-3 14 4 27 16 34Z" class="h"/>
    <path d="M2066 1159c37-2 76-8 114-15l-5-17c-25 4-77 12-109 14v18Z" class="y"/>
    <path d="m2108 1134 66-10c-48-159-73-261 17-367l-24-2-58 76c-1 6-22 109-1 303Z" class="g"/>
    <path d="M2105 1134c-29-276 19-254-14-376l-18 8c-1 57-3 239-7 372l39-4Z" class="g"/>
    <path d="M2070 643c9-16 22-22 22-22 18 13 58 32 58 32 7-16 26-17 37 1l-1 1c2 13-11 23-24 22a1117 1117 0 0 1-27 53c0 3 2 5 5 4l13-4c3 13 9 21 12 24l-57 73-14-72 2-29c-14-5-25-19-26-34 0-8-7-42 0-49Z" class="w"/>
    <path d="m2095 727-2 16c14-6 29-10 40-21 2-3 0-7-5-6-12 2-22 10-34 10l1 1ZM2099 695c1 24 45-12 3-2-2 0-3 0-3 2Z" class="i"/>
    <path d="m1813 715 2 42c-4 99 54 212 161 216-3-75 14-120 30-144 3-7 7-14 12-20-60 22-114-58-122-97-1-2-2-3-4-3h-7l-68 3c-2 0-4 1-4 3Z" class="n"/>
    <path d="M1844 604c2 7 3 19 11 22 10-5 8-31-2-37-8-2-10 11-9 15ZM1828 607c2 7 3 30 13 27 6-4 3-14 2-20-1-5-1-10-4-14-6-9-13-3-11 7ZM1872 623c4 8 19 27 31 18 12-10-38-38-31-18Z" class="w"/>
    <path d="M1819 618c3 23 11 44 13 67l-4 23 55-2-3-18c-10 7 16-36 15-42-11-1-21-13-25-21-3 1-7 0-8-3-2 8-11 10-15 1 1 6-2 17-10 14-10-5-11-24-12-35-5 4-6 9-6 16Z" class="w"/>
    <path d="M1864 607c1 4-2 16 4 15-2-5 3-10 8-9 3-6 5-24-2-26-8 4-9 11-10 20Z" class="w"/>
    <path d="m1880 611-1 3c7 1 13 5 19 9-3-15-4-102-18-65-4 18 5 35 0 53Z" class="w"/>
    <path d="m1828 708 55-2-1-7-53 2-1 7Z" class="i"/>
    <path d="M1982 976c-118-2-173-118-170-224a10417 10417 0 0 1 0-41c-2-5 79-4 80-5 3 0 6 2 7 5 8 40 62 120 122 94 2-1 3 1 2 2-62 28-119-54-127-95-1-2-2-3-4-3l-75 3-3 1c-2 12 1 26 1 39-4 108 58 229 179 221l2 1c-1 4-11 1-14 2ZM2395 1546a50 50 0 0 1-49-44c0-6-20-163-17-161 1-19 17-36 31-40l163-61c21-8 47 2 57 18l86 126a49 49 0 0 1-23 73c-14 3-244 95-248 89Zm-63-205c-3 0 17 157 17 162 2 28 35 48 62 38l231-87c27-9 39-45 22-69l-86-125a46 46 0 0 0-54-17l-163 61c-16 6-27 20-29 37Z" class="ag"/>
    <path d="M2490 1256c-7-11-18-18-30-21l-1-2c6-4 28 13 32 19l12-4a68 68 0 0 0-44-29 2 2 0 0 1 0-3c20 3 38 16 49 33l-18 7ZM2378 1297c-2-2-2-34 3-25-2 7-2 14-1 21l12-4c-1-6 2-30 9-31v2c-5 9-8 20-6 31h-1l-16 6ZM2493 1384c-1 0-2-3 0-3s136-54 137-50-135 51-137 53ZM2340 1441c-1 0-2-3 0-3 2 1 136-54 137-50s-135 51-137 53Z" class="ag"/>
    <path d="M2491 1415c-4 0-9-3-10-7l-11-30a11 11 0 0 1 21-7l11 29c3 7-3 15-11 15Zm-14-48c-4 1-6 6-4 10l11 30c1 4 6 6 10 5 4-2 6-7 5-11l-11-29c-2-4-6-7-11-5ZM2418 1279c-16-2-21-21-24-34a2 2 0 0 1 3-1c2 8 4 15 8 22 3 7 16 15 21 4 1-2-2-4 0-6 7 1 0 16-8 15Z" class="ag"/>
    <path d="M2432 1269c-2 0-8-2-6-5h2c7 6 11-4 8-10 2-10 8 15-4 15Z" class="ag"/>
    <path d="M2444 1257c-3 0-9-1-8-5h2c7 5 12 0 9-9 3-8 8 15-3 14Z" class="ag"/>
    <path d="M2450 1245c-2 0-5-3-1-3 8 1 11-10 10-16-1-11-8-21-12-32-8-21-21-40-29-61 0-2 3-3 3-1 9 22 22 43 30 65 4 9 10 18 11 29 1 7-2 19-12 19ZM2380 1274c-8-1-9-8-6-15 8-31 0-84 2-103 7 16 5 67 2 96 0 5-5 15-1 18 5 3 12-3 15-7 3-6 3-13 2-19 5-9 8 29-14 30Z" class="ag"/>
    <path d="m2378 1157-2-4-1 2c3-2-2-12-2-16a755 755 0 0 0-13-33l-1 2c6 15 10 30 15 46l1-2c-3 1 0 4 0 6s3 1 3-1ZM2426 1147c-4-1-2-13-3-17l-5-42c0-2 3-3 3-1a912 912 0 0 1 5 60Z" class="ag"/>
    <path d="M2354 1111c-18-15-55-102-93-139-23-26-57-46-91-71 81 30 154 149 181 205 0 7 72-23 74-22 2-1 3-2 2-4-25-136-89-317-262-327 168-6 244 199 265 327 1 3-1 6-4 7l-70 24h-2ZM1885 709l-1-1-5-25c0-2 3-2 3-1a13931 13931 0 0 0 3 27ZM2071 767c-6-3 10-8 12-9 3-1 8-6 11-3l-1 2-22 10Z" class="ag"/>
    <path d="m2057 1208-70-16c-4-1-6-5-5-8 13-71 20-134 11-210-10-89-7-165 80-211-1 68-3 303-9 439 0 3-3 6-7 6Zm-61-234c9 76 2 139-11 210 0 2 1 5 3 5l69 16c2 1 4-1 4-3 6-133 8-365 9-434-82 46-84 121-74 206Zm19-159Z" class="ag"/>
    <path d="M2064 1163c-2 0-2-3 0-3a824 824 0 0 0 118-16 1 1 0 1 1 0 3c-39 7-80 13-118 16ZM2107 834l-16-78a2 2 0 0 1 3-1l14 72 57-75h3c3 3-61 80-61 82Z" class="ag"/>
    <path d="M2205 1212c-3 0-5-2-6-5l-10-32-14-50c-50-161-75-263 18-370 1-1 4 1 2 2-91 105-67 208-17 367l24 82c0 2 2 3 4 3l118-28c7-2 11-9 10-16l-22-121c5-14 24 124 25 121 1 8-4 17-13 19l-119 28Zm41-11Z" class="ag"/>
    <path d="M2065 1141c-2 0-2-3 0-3a805 805 0 0 0 111-15l2 2c-24 8-81 13-113 16Z" class="ag"/>
    <path d="M2107 1137c-24-198-3-309 1-308 2 1-20 110-1 308ZM2092 757c-3 2 2-28 1-29-33-12-26-60-31-88-4-34 32-62 64-54 24 6 41 29 43 53a2 2 0 0 1-3 0c-2-24-20-47-44-51-30-4-60 21-57 52 5 27-3 75 31 86 0 1-1 32-4 31Z" class="ag"/>
    <path d="M2105 706c-6 1-9-7-9-12 2-6 11-4 15-6 6-1 13 1 12 8-3 7-8 9-18 10Zm10-15-14 2c-4 0-1 7 1 9 4 6 28-8 13-11Zm1 11ZM2178 660c-5-4-4-6-13-5-8-4 12-5 14 3 1 1 0 2-1 2Z" class="ag"/>
    <path d="M2167 664c-2 0-2-2-1-3 6-1 5-7 8-7 4 2-3 10-7 10ZM2104 678c-5 0-6-6-4-9 1-1 4-10 6-8 3 1-3 8-3 10-2 2-2 4 1 4 2 0 4-4 6-1 1 2-4 4-6 4ZM2167 755c-18-11-20-54-7-78 0-2 3-1 2 1-12 24-10 62 6 74 1 1 0 3-1 3ZM1973 1482c-20 0-37-20-33-40 16-85 29-167 48-251 0-2 3-2 3 0-19 84-32 167-48 251-3 14 4 27 16 34 4 8 136-6 145-5l194-10c13-1 23-13 22-26l-14-249c8-10 15 250 17 249 1 14-9 27-23 28l-327 19Z" class="ag"/>
    <path d="m2090 1806-2-2c1-34 5-67 8-101 8-64 14-169 24-233-6 105-22 232-30 336ZM1933 1907c-2 0-3-2-1-3 69-19 72-98 58-158a3339 3339 0 0 1-28-267c0-2 3-2 3 0 3 77 10 134 21 216 10 75 42 182-53 212Z" class="ag"/>
    <path d="M2099 1951c-7-1-21 3-22-8 0-1 1-66-1-66-25 27-61 60-102 70-36 8-71 3-79-22 0-13 27-16 39-21 13 46 65 4 103-27 24-22 40-46 48-70 1-3 3-5 6-5 11 1 14 32 15 53l1 88c0 4-4 8-8 8Zm-23-77c2 0 4 2 4 4v65c0 3 3 5 6 5 2-1 15 1 17-2l1-3-1-88c0-18-5-60-15-47-8 26-28 53-54 76-40 31-84 67-103 24-9 4-32 7-33 17 9 22 40 27 75 19 32-5 80-46 103-70ZM2426 1697c-2 0-112-186-113-186-7-11-18-40-13-51l1 2c1 17 6 33 15 47-2 3 117 186 110 188ZM2391 1880c-2 0-2-1-2-2 29-45-7-107-40-127-50-41-181-184-207-280 0-2 2-3 3-1 26 96 155 236 206 278 34 22 72 86 40 132Z" class="ag"/>
    <path d="M2389 1922c-27-1-5-31 1-45 42 22 49-45 52-94 1-32-5-60-17-83-4-24 34 4 49 18l64 60c3 3 4 9 0 12-5 4-13 17-20 10-1 1-49-49-49-44 8 55-13 163-80 166Zm2-41c-3 10-17 28-10 36 22 9 47-10 66-41 19-35 22-82 19-117 0-3 0-5 2-6 2-6 50 45 52 45 5 5 13-8 16-10 2-2 2-6 0-8-22-17-82-87-108-85v4c12 23 18 51 17 84-4 49-8 116-54 98Zm146-92ZM2088 658c1 8-12 9-12 0-1-8 12-9 12 0ZM2125 647c8-1 9 12 1 13-9 0-9-13-1-13Z" class="ag"/>
    <path d="M2193 606c-43-74-160-47-131 49-6 29-10 58-12 87 0 2-1 10 1 11 15-2 29-8 43-12l1-14c-30-11-27-43-30-69 1-17 24-37 27-37 18 13 58 32 58 32 7-16 26-17 37 1l-1 1c2 14-12 23-25 22l-1 2-1-1-23 52c-1 3 1 5 4 4 67-13 78-85 53-128ZM1976 975l18-1c-4-53-11-113 21-159-15 19-43 66-39 160ZM1827 711l-2-1 4-25c-1-12-4-25-7-37-2-16-14-39 3-50 2-1 4 1 2 2-15 11-4 33-2 48 3 12 6 24 7 37-1 0-3 28-5 26Z" class="ag"/>
    <path d="M1839 638c-11 0-18-36-11-43 7-6 15 3 16 10l-1 1c-3 1-2-9-9-10-13-3-2 37 4 38 12 2 3-21 7-22 3 1 2 8 2 11 1 5 0 15-8 15Z" class="ag"/>
    <path d="M1855 629c-10-2-12-16-14-25-2-6 4-21 13-17 13 6 15 38 1 42Zm-6-8c12 20 18-26 4-32-15 0-8 24-4 32Z" class="ag"/>
    <path d="M1868 626c-10-1-6-13-7-19 2-31 25-30 20 1-1 3-1 9-4 8l-1-2c3-6 4-14 2-21-2-11-9-4-11 1-2 4-3 12-3 18 1 3 0 7 2 10h4c1-1 3 2 1 3l-3 1Z" class="ag"/>
    <path d="M1897 647c-14 1-46-36-18-34 14 2 46 28 18 34Zm-22-31c-14 1 9 24 15 26 8 5 20-2 13-10-6-6-16-14-25-16h-3Z" class="ag"/>
    <path d="M1879 689c-7-1 17-35 16-44 9-7-6 25-8 27l-7 16-1 1ZM1900 628c-7-10-5-89-15-78-11 11-5 30-4 43 0 2 2 5-1 6l-1-2-1-6c-1-13-6-33 5-44 4-2 6-2 9 2a665 665 0 0 1 8 79Z" class="ag"/>
  </g>
  <path d="M1733 1064h672v548h-672z" class="af"/>
  <g style="clip-path:url(#d)">
    <path d="M2197 1333c-22 53-110 83-122 9l20-9c-2 14 8 31 27 31 27 2 53-30 56-35l19 4Z" class="m"/>
    <path d="M2354 1612h-133c-12-61-32-100-63-148-1-2-4 0-2 2 31 48 50 86 62 146h-246c5-94 0-220 100-269 13 77 107 45 128-9 125 32 155 163 154 278Z" class="s"/>
    <path d="M2183 1247c-5 6-13 8-21 8a1 1 0 0 0 0 1c-13 23 0 51 14 71-5 10-50 53-73 26-10-14-3-32-2-46-23-7-29-28-30-49-3-22-7-39 3-62 23 11 63-1 63-1l14 42 1-1c4-6 6-12 12-15 15-6 30 14 19 26Z" class="w"/>
    <path d="m2100 1270 21-2c1-1 3 1 2 2-1 4-4 11-9 13-7 5-21-10-14-13ZM2100 1308l-1 15c13-5 28-9 39-20 3-3 0-7-4-6-12 2-23 10-35 10l1 1Z" class="i"/>
    <path d="m2064 1230 4 26-29-1-13-55c14-10 32-17 47-16-9 13-12 30-9 46Z" class="w"/>
    <path d="M2046 1255h-7l-13-55 6-4 1 3 13 56Z" class="i"/>
    <path d="M2078 1335c-56 20-95 60-116 128-126-23-272-186-46-248 32-9 105-25 106-17l1 2 14 59v2c1 1 0 3-2 4-22 6-75 22-85 37-21 44 68 42 128 33Z" class="s"/>
    <path d="M2220 1614c-15-59-32-100-64-148-2-2 1-4 2-2l6 10c27 45 50 85 56 140Z" class="ag"/>
    <path d="M2357 1614h-388c5-106 1-237 120-282 3 0 7-4 9-2 0 4-6 3-8 5-116 43-113 173-118 276h382c0-133-38-260-177-282-2 0-1-4 1-3 141 22 180 153 179 288Z" class="ag"/>
    <path d="M2124 1364c-10 0-18-3-23-9-8-11-7-26-4-26l1 2c-2 10 4 31 24 30 29 2 53-37 56-35 3 3-26 38-54 38Z" class="ag"/>
    <path d="M2121 1390c-30 0-46-26-49-49-1-2 2-2 3 0 5 44 48 59 88 31 17-11 30-26 35-40 0-1 1-2 2-1-4 28-48 59-79 59Z" class="ag"/>
    <path d="M1983 1471c-136-15-309-191-67-259 44-13 81-17 102-20 3 0 6 2 7 5l15 63c1 3-1 7-4 8-19 8-94 20-86 50 24 29 81 19 137 13 3 0 10-3 11 0-60 15-137 15-151-12-2-5-1-11 3-17 10-15 63-31 85-37 2-1 3-3 2-4l-15-63c0-4-4-3-7-3-43 3-181 36-204 79-61 107 110 186 167 193l5 1c2 1 1 3 0 3ZM2178 1329c-16-19-29-50-16-74a2 2 0 0 1 3 2c-13 22 0 50 14 69 1 1 0 3-1 3Z" class="ag"/>
    <path d="m2097 1332-2-1 2-22c-33-10-29-60-34-86-3-73 97-77 107-7 27 3 25 40-2 42-2-1-6 1-6-2s4-1 6-1c25-3 24-35-1-36-7-68-104-67-101 3 6 27 0 76 35 85-1 1-2 27-4 25Z" class="ag"/>
    <path d="M2180 1239c-5-4-5-6-14-5-7-4 13-6 15 3l-1 2Z" class="ag"/>
    <path d="M2169 1243c-2 0-2-2-1-3 3-1 5-4 6-7 4-5 4 8-5 10ZM2108 1254c-5 1-7-5-4-8 1-1 3-10 5-9 3 1-2 9-3 10-1 2-1 5 2 4 2 0 4-3 6-1 1 2-4 4-6 4ZM2110 1285c-6 1-19-13-10-16l21-3c2 0 4 2 4 5-3 6-7 14-15 14Zm-10-13c-2 2 5 9 8 10 7 3 12-7 14-12 1-2-22 2-22 2ZM2069 1259c-5-1-32 1-33-3 1-3 17 1 22 0 2 0 18-1 11 3ZM2024 1201c-1 0-2-2-1-3 16-11 45-22 56-15 0 1-1 2-2 1-17-2-34 5-53 17ZM2090 1332l-1 2c-57 21-97 74-106 135h-5l-16-4c19-72 74-121 128-133ZM2085 1229c8-1 9 12 1 13-8 0-9-13-1-13ZM2128 1222c8 0 9 13 1 13-8 1-9-12-1-13ZM2158 1283c1-7 0-21 4-28 13 1 25-8 26-20l2 1s-5 35-32 47Z" class="ag"/>
    <path d="M2108 1159c9-2 20-2 31 0 17-56 88-3 52 36 1 3 5 18-1 41-2 0-7-14-13-16v2c-12-8-20 5-25 14l-1 1-14-42s-40 12-63 1c-7 20-8 29-6 48-13-32 2-77 40-85Z" class="ag"/>
  </g>
  <path d="M2407 1614h-675v-552h675v552Zm-672-3h669v-546h-669v546Z" class="ag"/>
  <path d="M1733 1656h1374v24H1733zM1733 1730h1374v23H1733zM1733 1803h1374v23H1733z" class="m"/>
  <path d="m1818 2396 183-109 4 6-183 109z" class="r"/>
  <path d="m1824 2405 182-109 4 6-183 109z" class="z"/>
  <path d="m1788 2346 85-51c-4-5-11-6-17-3l-63 38c-5 3-7 10-5 16Z" class="r"/>
  <path d="m1774 2316 12 18c1-3 3-5 6-7 5-2 67-43 72-40l-9-20-81 49Z" class="w"/>
  <path d="m1860 2273-83 50-5-8 84-50 4 8z" class="i"/>
  <path d="m1935 2260 13 23c3 5 11 0 8-5l-13-22c-3-5-11-1-8 4ZM1912 2274l14 22c3 5 11 1 8-4l-14-23c-3-5-11 0-8 5ZM1890 2287l13 23c3 5 11 0 8-5l-13-22c-3-5-11-1-8 4Z" class="g"/>
  <path d="m1790 2348 27 46 183-110a54 54 0 0 0-52-25l11 17c5 9-8 17-13 8l-13-21-10 5 13 22a8 8 0 0 1-13 8l-13-22-9 6 13 22a8 8 0 0 1-13 7l-13-21-98 58Z" class="z"/>
  <path d="M1841 2343c10 17 36 2 26-16-10-17-37-1-26 16Z" class="g"/>
  <path d="m1837 2369 156-93 7 8-183 110-20-33c14-8 31-4 40 8Z" class="g"/>
  <path d="M1626 2394h213v8h-213z" class="r"/>
  <path d="M1626 2405h213v7h-213z" class="z"/>
  <path d="M1627 2335h98c-1-6-6-11-13-11h-73c-6 0-12 5-12 11Z" class="r"/>
  <path d="M1630 2303v21l9-3c6 1 80-3 82 3l3-21h-94Z" class="w"/>
  <path d="M1725 2310h-96v-9h97l-1 9z" class="i"/>
  <path d="M1796 2338v26c0 6 9 6 9 0v-26c0-6-9-6-9 0ZM1770 2338v26c0 6 9 6 9 0v-26c0-6-9-6-9 0ZM1744 2338v26c0 6 9 6 9 0v-26c0-6-9-6-9 0Z" class="g"/>
  <path d="M1626 2338v53h213c0-20-12-39-31-47v20c0 9-15 9-15 0v-25l-11-1v26a8 8 0 0 1-15 0v-26h-11v26a8 8 0 0 1-15 0v-26h-115Z" class="z"/>
  <path d="M1673 2360c0 20 30 20 31 0-1-20-31-20-31 0Z" class="g"/>
  <path d="M1656 2381h182l1 10h-213v-38c16 0 28 12 30 28Z" class="g"/>
  <path d="M1087 1936a783 783 0 0 0 446 124l77 209h118c-63-393 11-287-352-443h-24c-18 6-245 106-265 110Z" class="ac"/>
  <path d="m1612 2271 10 27 2 2h105c1 0 2-1 1-2l-4-27h-114Z" class="g"/>
  <path d="M1663 1951c14 14 23 32 26 52l37 243 25 43 92-55c-28-39-139-261-180-283Z" class="ac"/>
  <path d="m1752 2292 14 23 1 1c9-3 50-30 58-34l31-19 2-1c2-1-14-25-14-25l-92 55Z" class="g"/>
  <path d="M1491 1815c18 6 37 8 56 4l4 1c13 6 25 13 39 18 12-3-17-20-20-22l-20-10c-1 0-2-1-1-2l2-1c18 5 35 14 53 17 10-7-14-14-19-16l-28-12c-2-1-5-1-4-3l1-1 36 14c5 1 22 6 19-3-12-11-29-15-43-21-2 0-1-3 1-3 11 2 25 2 34-6 6-6-3-12-9-11l-31 4c-22 2-45 2-67 2l-3 51Z" class="w"/>
  <path d="m1491 1815 6 2 4-53h-7l-3 51Z" class="i"/>
  <path d="M1053 1922c11 12 30 16 46 9l235-99 11-5c-94 2-233-46-281-143l-22 203c-2 13 2 26 11 35Z" class="y"/>
  <path d="M1054 1633c-2 85 115 153 158 167 100 35 173 24 270 22 3 0 5-3 5-6l5-64c0-3-2-6-5-7-67-22-277-95-307-161 22 30 80 70 181 111-5-72-18-153-86-193 5 32-6 87-7 96-6-35-66-97-73-104-77 0-145 55-141 139Z" class="y"/>
  <path d="M1222 1456c1-9-3-21-4-29 0-6-2-3-6-5-10-2-18-12-15-22 2-8 10-13 18-13 7 0 11 6 15 19l2 1s4-17 11-26c5-7 7-20 5-27 3 6 10 17 25 19 14 2 27 4 41 1 8 24-3 54-11 81-4 15-16 26-30 29 1 29-1 78-6 101-13-33-61-84-69-93 5-3 21-17 24-36Z" class="w"/>
  <path d="m1271 1484 1 15c-13-6-28-11-38-22-2-4 1-7 5-6 12 3 22 11 34 13h-2ZM1253 1437c1 6 4 16 12 14 3 0 10-5 9-8-1 1-22-8-21-6Z" class="i"/>
  <path d="M1345 1587c12 36 16 71 19 110 55 22 105 39 124 45 8 2 7 12 6 19h3l27-71c-64-24-128-60-179-103Z" class="y"/>
  <path d="M1612 1797c4 8-6 11-13 10 5 2 10 4 10 9h89c16 0 29-13 28-29h-131c6 3 13 4 17 10ZM1512 1730l44-117c5-11 15-19 27-19h174c19 0 34 21 26 39l-57 151c-5-1-149 3-149-5 10-1 22-1 28-10 4-8-5-15-13-14-30 4-61 7-92 6l12-31Z" class="l"/>
  <path d="M1627 1715c10 29 37 11 43-18 4-15 3-38-12-43-26-2-37 41-31 61Z" class="g"/>
  <path d="M1677 2321h3v3h-3zM1677 2335h3v3h-3zM1677 2301h3v2h-3zM1550 1806c5 0 60 32 37 31l-37-18c-11 1 18 12 20 13 7 3 27 17 25 1-5-9-15-14-23-20-2-1-28-15-22-7Z" class="ag"/>
  <path d="M1489 1818c18 6 44 9 59 4 4 1 12 8 15 5 1-3-10-5-12-7-3-2-6 0-9 0a111 111 0 0 1-52-5c-2-1-3 2-1 3ZM1554 1791l46 19c3 2 9 6 5 9-9 2-18-5-27-6-2-1-35-15-28-7l38 13c6 1 11 5 17 4 4-1 5-6 4-9-3-6-10-7-15-10-3 0-49-23-40-13ZM1493 1764c2 0 25 2 17-3-2 1-25-2-17 3Z" class="ag"/>
  <path d="M1493 1764c32 0 64-1 95-5 22-2 19 15-2 16h-19l-2 1c0 4 7 2 9 3 39 2 41-26 14-23a605 605 0 0 1-95 5c-2 0-2 3 0 3Z" class="ag"/>
  <path d="M1566 1778c13 5 30 11 43 19 6 12-18 5-23 4h1c-2 0-3 3-1 3l16 3c5 1 12-2 11-8-4-10-36-19-46-24-2-1-3 3-1 3ZM1784 2338l-14-23 86-52 12 26-3 1-10-23-81 49 13 20-3 2zM1842 2394l-2-2 165-99-4-6-160 96-2-3 163-98 7 12-167 100Z" class="ag"/>
  <path d="m1842 2406-2-2 170-102-4-7-164 99-2-2 167-101 7 12-172 103zM1922 2269l-2-2c4-3 9-6 13-7l1 3-12 6ZM1841 2383l-2-3 161-96a54 54 0 0 0-54-25v-2c23-4 46 8 58 28l-163 98ZM1807 2338v-2l-1-1 81-49 2 3-82 49zM1898 2280l12-8 2 3-12 7z" class="ag"/>
  <path d="M1807 2338v-2l-1-1 67-40c-4-5-12-6-17-3-4 4-70 38-68 45h-3c-1-10 64-42 70-48 7-4 17-1 21 6v1l-69 42ZM1952 2288c-7 1-16-22-20-26-5-8 8-16 13-8l14 22c3 5-1 12-7 12Zm-13-34c-3-1-6 3-4 6l13 23c2 2 5 2 7 1s2-4 1-6c-2-2-13-26-17-24ZM1930 2301c-7 2-17-22-20-26-5-8 8-16 13-7l13 22c3 5-1 12-6 11Zm-14-34c-3 0-5 4-4 7l14 22c2 4 7 3 8-1 2-2-13-24-14-26l-4-2ZM1907 2315c-7 1-16-22-20-26-5-8 8-16 13-8l14 23c2 3 1 8-3 10l-4 1Zm-13-34c-4 0-6 4-4 6l13 23c3 5 11 0 8-5-2-2-13-26-17-24ZM1526 1691c-65-25-138-63-185-110 47 36 103 75 163 98 4 3 30 9 22 12ZM1273 1501c-2 0-2-3-1-3 2 0 2 3 0 3ZM1630 2328h-3v-28h100l-3 27h-3l3-24h-94v25zM1821 2394v-3 3zM1842 2415h-219v-13h219v13Zm-216-3h213v-7h-213v7Z" class="ag"/>
  <path d="m1795 2339-15-1v-3l15 1v3Z" class="ag"/>
  <path d="M1842 2394h-219v-59h119v3h-116v53h213c0-21-13-40-33-48l1-3c22 9 36 31 35 54Z" class="ag"/>
  <path d="M1754 2335h14v3h-14zM1727 2338h-104c0-8 7-17 16-17h73c9 0 17 9 16 17h-1Zm-100-3h98c-1-6-6-11-13-11h-73c-6 0-12 5-12 11ZM1801 2371c-4 0-8-3-8-7v-26c0-8 12-11 15-3v29c0 4-3 7-7 7Zm0-38c-3 0-5 2-5 5v26c0 6 9 6 9 0v-26c0-3-2-5-4-5Z" class="ag"/>
  <path d="M1774 2371c-4 0-7-3-7-7v-26c0-4 3-8 7-8 5 0 8 4 8 8v26c0 4-3 7-8 7Zm0-38c-2 0-4 2-4 5v26a5 5 0 0 0 9 0v-26c0-3-2-5-5-5ZM1748 2371c-4 0-7-3-7-7v-26c0-4 3-8 7-8s8 4 8 8v26c0 4-4 7-8 7Zm0-38c-2 0-4 2-4 5v26a5 5 0 0 0 9 0v-26c0-3-2-5-5-5ZM1610 2268h118v3h-118z" class="ag"/>
  <path d="M1729 2303h-105c-2 0-4-2-5-4l-87-237c-161 3-311-38-446-125l1-1v-2a776 776 0 0 0 447 125c3 2 86 241 90 241h105c5 0-45-295-43-297-5-31-25-58-55-70l-256-105 1-3 256 105c31 13 52 40 57 73l44 294c1 3-1 6-4 6ZM1355 1827v-3 3zM1750 2290l95-56 1 2-94 57z" class="ag"/>
  <path d="M1768 2319c-4 4-43-71-45-71l3-2 40 69 3 1 90-55-154-264c-17-29-44-52-75-65l1-3c32 14 59 37 76 67-1 4 162 264 153 268l-4 2c-3 1-84 53-88 53ZM1272 1501l-1-2v-15c35-3 37-54 46-79 14-69-82-85-99-18-28-3-29 34-1 36l1 4c1 10 7 24 2 34 0 2-3 1-3-1 2-4 3-9 2-14l-4-20c-28-3-29-42 1-42 20-68 119-49 104 22-9 25-12 76-46 80v13l-2 2Z" class="ag"/>
  <path d="M1313 1373s8 22 0 53c0 0 15-31 12-59l-12 6ZM1216 1468c-42-24-40-92-6-122 6-5 15-6 22-10 1 8 2-2 4 7l6 18c-11 3-25 27-23 26-21-9-39 32-2 37l4 28c1 5-5 16-5 16Z" class="ag"/>
  <path d="M1203 1405c-1 0-2-2-1-3 3-5 17-5 17-1-2 3-7-4-16 4Z" class="ad"/>
  <path d="M1213 1411c-4-1-7-6-6-11 0-2 3-1 3 1-1 6 9 8 3 10Z" class="ad"/>
  <path d="M1287 1411c-2 8 11 11 13 3s-11-11-13-3ZM1245 1399c-2 8 11 11 13 2 2-8-11-11-13-2Z" class="ag"/>
  <path d="M1269 1428c-2 0-7-2-6-5h2c2 1 4 4 6 2 2-3-5-13-2-14s4 8 5 9c1 3 0 9-5 8ZM1263 1455c-8 0-12-10-13-17 0-3 2-5 5-4l20 6c8 5-6 15-12 15Zm-9-18c-2 2 2 11 5 13 5 4 13-1 15-6v-1l-20-6Z" class="ad"/>
  <path d="M1208 1388c-4-47 20-49 20-49l4-12c16-20 40 5 58-7 7-4 12-10 20-13 38-9 37 45 14 61-14 11-34 7-51 5-21-3-26-22-26-22 3 5 2 21-4 30-7 9-11 26-11 26l-2-1c-6-16-10-22-22-18ZM1195 1494c-7-2 29-19 24-48a2 2 0 0 1 2-1c5 29-23 48-26 49Z" class="ag"/>
  <path d="M1268 1598c-6-38-75-102-74-107 6 0 58 58 73 94 4-18 7-69 5-87 12 21-4 95-4 100Z" class="ag"/>
  <path d="M1376 1828c-105 6-263-38-315-149-39-97 37-191 134-188 2 0 2 3 0 3-29 0-58 9-84 24-36 21-58 67-57 115-2 85 115 153 158 167 77 29 135 24 204 24l66-2c3 0 5-3 5-6l5-64c0-3-2-6-5-7-67-22-277-95-307-161h2c10 44 243 143 306 158 4 2 7 6 7 11l-5 63c0 5-3 8-8 9-39 2-69 3-106 3Z" class="ag"/>
  <path d="M1083 1938c-26 0-49-25-44-51 2-1 20-211 24-210 4 0-22 209-21 210a42 42 0 0 0 57 44c2 1 253-110 255-106s-253 107-254 109c-6 2-11 4-17 4ZM1363 1699c-11-77-14-154-91-199-2-1 0-3 1-2 56 31 80 93 87 154l4 43c0 2 1 4-1 4ZM1698 1819h-90v-3h90c16 0 29-13 28-29h-127v-3h130c2 18-12 35-31 35ZM1576 1816h13v3h-13zM1642 1733c-37-5-18-88 16-82 33 12 12 82-16 82Zm13-79c-24 3-34 41-28 61 10 29 37 11 43-18 4-16 3-42-15-43Z" class="ag"/>
  <path d="M1729 1787h-141v-3h138l57-151c8-18-7-39-26-39h-174c-12 0-22 8-27 19l-57 150-2-1c90-226 17-161 260-171 21-1 37 23 29 43l-57 153ZM1839 2393h3v10h-3zM1623 2393h3v10h-3zM1062 1702c72 130 283 125 283 125-94 2-233-46-281-143l-2 18ZM1345 1587c12 36 16 71 19 110l5 1c-5-73-23-110-24-111ZM1663 1951c14 14 23 32 26 52l37 243 14 25c-23-90-28-279-77-320Z" class="ag"/>
  <g style="clip-path:url(#e)">
    <path d="M3561 1925c0 2 2 3 3 3h101c2 0 4-1 4-3l48-264c-33-117-27-185-23-268 0-2 2-2 3 0 4 51 11 207 47 287 40 68 162 194 193 209l68-72 11-11v-4l-102-185-39-301c-16 29-279 16-299 10-68 238-57 393-15 599Z" class="h"/>
    <path d="M3333 1223c1 3 4 7 8 7l1 1c1 2-4 3-4 6 2 8 12 5 12 7v2c-3 2-5 5-4 8 2 3 11 2 11 5-5 21 25 15 39 15h44l-4-61v-1c-21-6-52-14-74-27-5-3-7-4-10-3-4 4-1 13 2 17 4 4 11 6 17 8h1l-1 3c-12-1-36-3-38 13Z" class="w"/>
    <path d="m3439 1213 4 63c0 3 3 6 6 6 41 2 78 3 118 3 53 0 110-7 151-24 60-24 154-79 158-168 4-84-64-139-140-139-27 24-62 35-79 7-81 53-78 107-79 191 94-40 152-77 170-108 1-1 4 0 3 2-14 46-224 135-294 155-9 4-17 2-18 12Z" class="g"/>
    <path d="M3573 1331c22 8 48 1 71 2 42 0 83 4 125 5 34 0 70 3 104-2 4-2 10-5 9-14l-14-159c-62 106-194 129-299 125-2 14-11 35 4 43Z" class="g"/>
    <path d="M3636 862c1 26-2 60 26 71l1 1-3 25c13 25 46 18 73-7-5-5-24-36-4-66 15 3 30-11 24-24-8-15-25-16-32 1l-5 14c-1 1 0 9-3 7-9-27 11-35-11-63-9 20-51 7-66 41Zm27 37c0-3 21-3 23-3 3-1 5 2 4 5-3 7-10 17-19 12-5-3-10-9-8-14Z" class="w"/>
    <path d="M3660 949c14-4 28-7 39-16 3-3 1-7-3-7-12 1-22 7-33 7l-3 16ZM3665 901c5 15 19 12 22-2-1 0-23 0-22 2ZM3429 1213l4 61h7l-4-61v-1l-7-2v3Z" class="i"/>
    <path d="M3212 833c1 6 5 9 8 12l8 4c27 14 18-9 4-19-6-5-22-9-20 3Z" class="w"/>
    <path d="M3203 850c-1 7 35 31 38 19 2-9-36-35-38-19ZM3228 818c2 6 8 12 13 16 3 3 8 10 11 5-5-2-7-9-1-13-3-11-30-32-23-8Z" class="w"/>
    <path d="m3365 1277 9 37c1 4 5 7 9 6 5-1 7-6 6-10l-7-32-17-1Z" class="ac"/>
    <path d="M3206 869c22 20 50 30 72 50l1-1-17-77-7-1c-1 3-5 5-8 3 5 9-1 16-11 13 8 4 13 19 0 19-12-1-24-10-33-18 0 4 1 9 3 12Z" class="w"/>
    <path d="m3216 630 76 328 57 249 10-1c-13-4-19-33 0-26l-45-196-83-356c-1-9-15-7-15 2Z" class="ac"/>
    <path d="m3283 840 15 61 17-16c-12-14-15-33-24-49l-8 4Z" class="w"/>
    <path d="m3273 915 5 4 1-1-1-8-5 5Z" class="i"/>
    <path d="m3271 934 16 19-7-31-8 8c-2 1-2 2-1 4Z" class="g"/>
    <path d="M3210 781c8 11 19 19 29 26l3 3c5 3 9 8 11 14l4-2-5-24-40-30c-8-1-5 10-2 13ZM3250 833c1 3 8 5 11 5l-3-13c-3 1-8 4-8 8ZM3279 819l4 18c15-5 12-21-4-18Z" class="w"/>
    <path d="m3296 894 2 7 17-16-4-5-15 14Z" class="i"/>
    <path d="m3298 905 19 78c64 62 156 112 243 126 1-103 74-141 91-148a515 515 0 0 1-324-79c-3-2-7 3-9 5l-20 18Z" class="g"/>
    <path d="M3470 2067c9 22 40 27 75 19 30-6 79-43 100-68 2-3 7-2 7 2v65c0 3 3 5 5 5 5-1 19 3 19-5-1-28 3-115-9-135-2-4-6-3-7 0-8 25-25 49-49 71-38 31-89 74-108 29-10 4-32 7-33 17Z" class="h"/>
    <path d="M3506 2049c16 41 66 0 103-30 27-23 39-49 51-74v-14h-89c7 45-15 106-65 118Z" class="w"/>
    <path d="M3973 2052c22 9 48-10 66-41 17-25 24-87 20-119-1-4 4-6 6-4l47 45c2 2 6 1 8-1 2-3 15-11 9-17-21-18-81-80-104-86-4-1-6 2-5 5 13 23 19 51 18 84-4 49-8 116-54 98-4 10-17 28-11 36Z" class="h"/>
    <path d="M3945 1884c38 27 66 85 40 129 40 16 45-38 50-88 3-36-8-68-18-95l-11-10-61 64Z" class="w"/>
    <path d="m4006 1820-61 64 10 8 60-64-9-8ZM3571 1931l1 12h88v-12h-89Z" class="i"/>
    <path d="M3278 923c-15-12-25-20-40-29-11-7-25-13-34-23-3-4-6-17-2-18 3 0-1 11 4 16 9 9 22 16 33 23 3 1 48 29 39 31Z" class="ag"/>
    <path d="M3236 875c-10 0-35-14-36-25 0-10 14-10 20-6v2c-2 3-5-1-8-1-29 0 18 32 26 27 8-7-6-16-11-20-5-10 21 11 17 17-1 4-4 6-8 6Z" class="ag"/>
    <path d="m3241 857-5-1c-11-5-24-9-27-22-1-5 1-10 5-11 15-7 50 30 27 34Zm-23-32c-5 0-7 5-6 8 1 10 25 24 33 20 4-11-16-28-27-28Z" class="ag"/>
    <path d="M3249 844c-6-1-22-19-23-25-8-27 19-12 26 2 1 2 4 5 1 6h-2c-2-8-15-23-23-19-3 10 5 18 12 25 3 3 10 12 13 5 0-2 3-1 3 0-1 3-4 6-7 6ZM3282 841c-2 0-2-3-1-3l3-1c14-6 10-21-5-18-5 1-5-3 0-3 22-4 22 21 3 25Z" class="ag"/>
    <path d="M3263 841c-17 0-22-12-5-20l2 1c1 2-2 2-3 3-6 3-11 10-1 12 2 1 7 0 8 3l-1 1ZM3317 887c-9-8-13-20-17-31-3-7-6-15-10-21v-2c7 1 13 26 16 32 3 7 7 14 12 20 1 1 0 2-1 2ZM3241 812l-4-2h-1v-1c-11-10-31-20-32-38 1-5 3-6 8-6 4 1 35 26 42 31 1 1-1 3-2 2l-40-30c-3-1-5 1-5 3 1 17 21 27 31 36h1l3 2c1 1 1 3-1 3ZM3340 1233c-10-1-13-15-4-21 10-7 23-7 35-5 2 0 1 3-1 3-11-2-23-2-33 4-6 5-4 15 3 16 3 0 2 3 0 3Z" class="ag"/>
    <path d="M3348 1246c-19-1-11-19-6-16 1 3-4 4-4 7 2 5 6 6 11 6 2 0 2 4-1 3Z" class="ag"/>
    <path d="M3355 1260c-26-2-2-25-5-14-7 5-4 11 5 11 2 0 2 3 0 3Z" class="ag"/>
    <path d="M3375 1278c-11 1-27-7-21-20a2 2 0 0 1 2 1c-2 5 1 11 6 13 5 3 11 3 17 3l42-1c5 1 21-2 22 1 0 3-17 1-22 2l-46 1ZM3437 1212c-11-3-53-14-75-27-7-5-11-5-12 2-1 12 11 18 21 20 6 7-18-3-19-6-5-5-8-16-1-21 5-4 13 3 19 6 14 10 79 24 67 26ZM3578 1116c-95-14-194-64-264-132-1-1 1-3 2-2a535 535 0 0 0 169 107c35 13 62 18 93 24 2 0 1 3 0 3ZM3591 965c-71 0-159-28-227-62-50-23-27-33-66 2-1 2-4-1-2-2l25-23c2-2 5-2 7 0 80 47 187 86 278 82l52-4 2 1c-1 3-11 2-14 3-18 2-37 3-55 3ZM3290 960c-10-9-17-20-21-25-6-6 8-13 11-17 1-2 4 1 2 2l-10 10c-2 1-2 2-1 4l21 24-2 2Z" class="ag"/>
    <path d="m3577 1156-2-2 1-38c-5-63 22-123 82-158 1-1 2 1 2 3h-2c-57 34-84 92-79 153l-1 40-1 2ZM3826 1342c-61 0-121-4-182-6-23-3-85 15-83-22l5-28c0-2 3-1 3 1l-5 27c-1 28 39 20 57 20 24-2 49-1 73 1 57 2 115 5 172 3 8-2 16-4 16-16 2 0-21-193-13-184l16 184c1 7-3 13-10 16-16 5-33 3-49 4Z" class="ag"/>
    <path d="m3555 1288-92-2c-8-1-22 2-23-9l-4-64c0-12 10-11 20-15 72-19 277-110 294-154-14 35-76 70-173 112-53 22-101 39-133 49-5 2-6 8-5 12l4 59c2 9 14 5 20 7l92 2c120 1 248-30 311-147 33-78-16-166-96-180-11-2-23-4-35-4-2 0-2-3 0-3 79 0 149 56 144 142-3 90-99 146-160 170-45 19-109 25-164 25Z" class="ag"/>
    <path d="M3686 978c-19 2-37-24-27-19 13 26 47 18 75-8a2 2 0 0 1 2 3c-19 16-36 24-50 24ZM3661 935c-22-8-28-34-27-56 0-22-6-48 9-66 20-26 62-25 82-1 6 6 18 32 13 39l-2-2c-1-13-5-25-14-35-18-23-58-23-76 0-16 19-9 45-9 68 0 20 5 43 25 51 1 0 1 3-1 2Z" class="ag"/>
    <path d="M3734 889c-2 0-6 1-6-2l2-1c7 1 14-1 19-6 11-11 3-27-12-29-2 0-1-4 1-3 27 4 24 41-4 41ZM3658 961c-1 0-2-1-1-2l3-25c0-2 3-2 3 0-1 1-2 28-5 27Z" class="ag"/>
    <path d="m3747 871-1-1c-2-4-6-5-12-5-7-5 13-4 15 4l-2 2Z" class="ag"/>
    <path d="M3736 875c-2 0-2-3 0-3 3-1 5-4 5-7 5-5 4 8-5 10ZM3674 884c-10-1-2-12 1-16 0-2 3-1 2 1l-4 8c-2 2-2 5 1 4 2 0 5-3 6-1 1 3-4 4-6 4ZM3676 914c-7 0-16-9-13-15 0-3 21-3 23-3 11 1-4 20-10 18Zm-10-14c-2 2 4 9 6 10 8 4 13-5 15-11 2-2-21 2-21 1Zm-1-1ZM3735 954c-2-1-27-29-7-68 1-1 4 0 3 2-23 39 10 63 4 66ZM3382 1323c-5 0-10-4-11-9 1 0-12-42-8-41 3-2 10 40 11 41 2 10 18 6 15-4 1-1-10-36-6-35 2-3 8 34 9 35 2 6-4 13-10 13ZM3348 1210c-36-142-100-434-135-578-3-13 18-18 21-4-1 1 132 556 128 556-5 2-129-555-131-556-2-10-17-6-15 4 37 167 99 412 132 578ZM3665 1931h-101c-3 0-5-3-6-6-42-208-54-367 17-593-11 64-51 220-52 280 0 75 26 278 41 316h101c9 1 55-300 58-303 10-8-54 300-51 300-1 3-3 6-7 6Z" class="ag"/>
    <path d="M3934 1893c-36-30-177-157-204-241-21-70-33-201-36-259-1-2 2-2 3 0 1 28 4 70 12 129 5 44 12 90 24 129 24 82 168 207 199 238 1 2 3 2 5 0l5-5 74-78c6-4-103-185-102-189 1-1-40-283-36-284 5-1 37 282 38 283l103 184c1 3 1 6-1 8l-79 83c-1 2-3 2-5 2ZM3661 1948l-1-2v-17l2-1 1 1v17l-2 2ZM3504 2049c-1 0-2-2 0-3 52-10 72-79 64-117 0-1 3-2 3 0 8 39-13 109-67 120Z" class="ag"/>
    <path d="M3671 2093c-7-1-22 3-22-8 0-1 1-66-1-66-25 27-62 60-102 70-36 8-71 3-79-22 0-13 27-16 38-21 14 46 66 4 104-27 24-22 40-46 48-70 1-3 3-5 6-5 11 1 14 32 15 53l1 88c0 4-4 8-8 8Zm-23-77c2 0 4 2 4 4v65c0 3 3 5 5 5 3-1 16 1 17-2l2-3-1-88c-1-18-6-60-15-47-9 26-28 53-54 76-40 30-84 67-103 24-10 4-32 7-33 17 9 22 40 27 75 19 32-5 79-46 103-70ZM4019 1832l-1-1-13-12a1 1 0 1 1 2-2l13 12c1 1 0 3-1 3ZM3983 2015c-1 0-2-1-1-2 29-45-8-107-40-127-1-1 0-4 2-3 34 22 71 86 39 132Zm0-1Z" class="ag"/>
    <path d="M3981 2057c-26-1-4-31 2-45 42 22 49-45 52-94 1-32-5-60-17-83-3-5 2-12 8-9 23 6 84 69 105 87 8 8-5 16-9 22-3 3-8 3-12 0-1 0-47-46-48-45 6 56-11 162-81 167Zm3-41c-4 10-17 28-11 36 22 9 48-10 66-41 16-25 24-86 20-117-2-4 3-9 6-6l47 45c6 5 13-8 17-10 2-2 2-6 0-8-21-18-81-80-104-86-4-1-6 2-5 5 13 23 19 51 18 84-4 49-8 116-54 98ZM3719 1262c40-12 131-68 148-118l2 18c-61 106-198 132-300 125 31 1 119-11 150-25ZM3797 955l2 11c-21-8-40-14-64-14-8-8-14-24-14-36 0-9 5-24 9-30 5 1 12 1 17-3 10-6 11-20 2-28-21-16-32 11-34 29-2 3-3-5-3-6-3-10 0-20 1-30 0-10-6-20-11-27-8 20-50 8-65 40l-2 6c1 13 0 36 6 48 3 7 8 12 14 16l5 2-2 26-52 5 1-11a50 50 0 0 1-1-58c-27-18-27-63 0-81-4-40 47-68 80-45 25-22 69-10 80 21 31 5 51 43 35 72 41 16 38 80-4 93Z" class="ag"/>
    <path d="M3578 1114c-5-60 22-119 75-152l1-2s-94 34-94 151l18 3ZM3646 864c0-9 13-9 13 0 0 8-13 8-13 0ZM3703 860c0 9-13 9-13 0 0-8 13-8 13 0ZM3725 1626l-7 38c-34-118-28-187-24-271 6 43 10 149 31 233Z" class="ag"/>
  </g>
  <path d="M3491 1870a378 378 0 0 0-217 205c-13 31-33 58-56 80-49 51-134 53-162 125l101 273c100 45 166-54 300 15 132 69 319 42 427-67 295-271-13-777-393-631Z" style="fill:#fec02d"/>
  <path d="m3200 2514-105-285c-17 13-30 31-39 51l101 273c32 16 70 18 106 5 64-23 133-19 194 10 137 72 332 39 439-79-287 198-385-41-589 30-36 13-74 11-107-5Z" class="ab"/>
  <path d="M3490 2106c-33 29-43 83-31 127-69 26-272 98-370 133l10 31 370-132c2 5 10 25 11 31l-368 135 12 31 369-136c33 80 148 114 190 28 16-33-1-81-36-93-52-14-74 5-135 23l-11-31c58-25 87-24 118-68 37-82-68-138-129-79Zm34 209c47-13 109-48 128-5 22 66-85 92-128 5Zm48-196c9 5 17 14 20 24 13 46-57 59-102 79-15-54 23-127 82-103Z" class="t"/>
  <path d="m3174 2444-11-32-51 19 12 31 50-18ZM3089 2366l10 31 51-18-11-31-50 18Z" class="l"/>
  <path d="M3157 2553c-63-22-84-113-105-168-13-34-11-73 4-105l101 273Z" class="t"/>
  <path d="M3728 1919c227 86 172 233-56 150-227-86-173-233 56-150Z" class="g"/>
  <path d="M3009 2256c-19 7-28 27-21 46l99 273c17 44 82 20 67-25l-99-272c-7-19-27-29-46-22Z" class="h"/>
  <path d="m3038 2258 116 318c18-6-99-286-99-298-3-9-9-16-17-20Z" class="aa"/>
  <path d="M2946 2298c-18 7-28 27-21 46l87 239c17 44 82 20 67-25l-87-238c-2-6-5-11-9-14-10-9-24-13-37-8ZM2888 2353c-21 7-29 32-20 51l62 169c13 49 84 30 69-19l-65-180c-7-18-27-28-46-21Z" class="h"/>
  <path d="M2867 2406c-38 10-72 33-58 78 24 66 31 128 119 88l-61-166Z" class="h"/>
  <path d="m2917 2355 82 224c15-12-63-189-65-205-3-8-9-15-17-19ZM2976 2300c1 6 99 272 101 278l2 6c15-11-85-250-87-264-3-9-9-15-16-20ZM2867 2406l-8 3 3 9 54 148 3 9 9-3-61-166z" class="aa"/>
  <path d="M3622 2608c-128 7-228-103-358-48-36 13-74 11-109-6l2-2c67 37 134-18 204-10 33 2 66 10 96 25 147 74 335 37 444-85 369-455-362-928-626-406-65 147-169 104-217 203l-3-1c48-100 154-58 218-203a383 383 0 0 1 629-107c225 238 48 643-280 640Z" class="ag"/>
  <path d="M3120 2601c-15 0-30-9-35-24l-100-275c-16-46 54-72 72-27l100 276c9 25-12 50-37 50Zm-132-300 100 275c6 18 28 27 46 19 17-6 26-26 20-43l-100-276c-16-41-81-18-66 25Z" class="ag"/>
  <path d="M3044 2609c-15 0-29-10-34-24l-88-241c-12-31 24-61 53-47 9 4 16 11 19 20l88 242c9 25-12 51-38 50Zm-119-266 88 241c15 42 81 18 66-24l-88-241c-3-9-9-16-17-20-27-12-60 15-49 44Z" class="ag"/>
  <path d="M2965 2605c-15 0-30-10-35-25l-66-182c-8-20 4-42 24-48 20-7 41 3 48 22l66 182c9 25-12 51-37 51Zm-98-208 66 182c10 30 53 29 65 2 4-8 4-17 1-26l-66-182c-16-42-81-18-66 24Z" class="ag"/>
  <path d="M2881 2588c-54 0-58-68-75-105-10-27 5-59 31-68l32-12 62 170c-12 4-37 16-50 15Zm-72-106c11 23 22 88 51 98 21 12 47-1 67-8l-60-165-29 11c-25 8-39 39-29 64Z" class="ag"/>
  <path d="M2435 485h672v549h-672z" class="t"/>
  <path d="M3109 1035h-675V483h675v552Zm-672-3h669V486h-669v546Z" class="ag"/>
  <path d="M2884 764c-23 52-110 82-123 8l20-8c-1 14 9 31 28 31 26 1 52-30 56-35l19 4Z" class="g"/>
  <path d="M2763 643c2 28-6 71 27 84l-5 35c-3 10 3 30 24 30 24 1 48-28 53-34-22-19-21-56-6-78 26 5 35-31 7-35-16-71-52-10-94-25-2 5-5 13-6 23Z" class="w"/>
  <path d="m2789 728-2 16c13-5 28-9 39-19 3-4 1-8-4-7-12 2-22 9-35 10h2ZM2817 685c-2 17-16 16-22 3l21-3h1Z" class="i"/>
  <path d="M2842 896c29 45 48 82 60 138h-244c6-93 4-213 101-260 13 77 106 45 128-9 121 30 152 156 153 269h-135c-12-56-31-94-60-139-1-2-4-1-3 1Z" class="y"/>
  <path d="m2454 639-19 13v-58l19 45Z" class="w"/>
  <path d="M2776 763a181 181 0 0 0-126 129 502 502 0 0 1-215-165v-71l21-15c3-1 7-7 10-4 89 72 198 125 310 126Z" class="y"/>
  <path d="m2454 639-19 13v-15l13-8 1-1 5 11Z" class="i"/>
  <path d="M2904 1035c-15-53-32-94-62-139-2-2 2-4 3-1 27 45 53 86 59 140Z" class="ag"/>
  <path d="M3043 1035h-388c6-104 4-229 120-272 3-1 7-4 9-2 1 3-5 3-8 5-113 42-112 164-118 266h382c-2-129-41-251-176-273-2 0-2-3 0-3 138 22 178 148 179 279Z" class="ag"/>
  <path d="M2810 795c-9 0-18-4-23-10-7-10-7-25-4-25l2 2c-3 10 3 30 24 30 30 1 52-37 56-35 3 3-27 37-55 38Z" class="ag"/>
  <path d="M2808 820c-31 0-47-25-50-48 0-2 3-3 3-1 6 44 49 60 88 32 17-11 31-27 36-41l1-1c-3 29-48 59-78 59ZM2669 902a481 481 0 0 1-235-174c42 50 121 132 227 168 2 1 14 3 8 6ZM2783 763c-115 1-226-52-317-126h-4l-26 18c-1 1-3-1-2-2l27-18c2-2 5-2 7 0 47 38 96 67 150 90 57 25 96 33 153 34 4 1 18 0 12 4Z" class="ag"/>
  <path d="M2783 763c-4 2 4-33 4-34-34-15-25-62-27-91 3-73 104-67 106 4 29 8 19 45-9 41-12 23-14 56 8 74 2 1 0 3-2 2-22-18-22-52-10-76 1-2 2-4 3-3 27 5 35-31 7-35 0-69-96-77-100-7 2 28-8 76 27 89-1 1-4 38-7 36Z" class="ag"/>
  <path d="M2874 665h-2c-1-5-5-6-11-6-7-5 13-4 14 4 1 1 0 3-1 2Z" class="ag"/>
  <path d="M2863 669c-2 0-2-3-1-3 6-1 5-8 8-7 4 2-4 10-7 10ZM2805 672c-11-1-2-12 1-16 1-2 3 0 2 1l-4 8c-4 5 2 5 5 3h2c1 3-4 4-6 4ZM2807 701c-6 0-16-8-15-14 0-3 21-4 23-5 11 0 0 21-8 19Zm9-16s-23 2-21 4c3 5 11 12 17 7 2-1 6-10 4-11ZM2455 641c-3-2-4-9-7-14 0-4-21-45-11-38 5 16 13 35 20 50 0 1-1 3-2 2Z" class="ag"/>
  <path d="M2435 731c-4 0 0-140-1-141l1-2c4 0 0 140 2 142l-2 1ZM2649 893l20 7c9-61 49-114 107-136l1-2c-45 8-113 61-128 131ZM2754 610l7 6c-3 21 1 43 1 43 0-18 4-31 7-39 42 15 78-46 94 25 27-2 25 42-7 36-6 18-13 16-9 42 12-6 88-47 36-129-25-40-50-35-73-30-29 6-45 15-55 12-6-2-11-7-12-4s-4 23 11 38Z" class="ag"/>
  <path d="M2778 651c-1 8 12 9 13 0 0-8-13-8-13 0ZM2821 649c0 8 13 8 13 0s-13-8-13 0Z" class="ag"/>
  <path d="M593 1709h-10c6-50-46-111-82-125l4-9c39 15 94 81 88 134Z" class="m"/>
  <path d="M261 1371s-53 205 147 247c199 42 103-191-4-171-107 21-143-76-143-76Z" class="s"/>
  <path d="m484 1572-1 3-31-11-47 16-2-1c-2-4 43-16 44-17-53-19-109-47-149-88l2-2c21 21 50 42 78 56 2 2-34-67-23-57l27 60a627 627 0 0 0 102 41Z" class="g"/>
  <path d="M452 1625c-156-3-225-130-192-259 10 32 57 86 115 83 30-2 56-11 85 8 69 38 106 170-8 168Zm-191-249c-9 45-10 108 23 161 26 64 194 118 229 59 34-54-36-161-109-147-77 13-120-27-143-73Z" class="ag"/>
  <path d="M611 1731c-24-32-33-190-26-226l10 1c0 2-12 140 25 221l-9 4Z" class="m"/>
  <path d="M615 1187s178 114 61 281-205-69-113-128c92-58 52-153 52-153Z" class="h"/>
  <path d="m691 1325-1 1-41 27c-15 46-30 91-51 134 1 0 31-24 32-20l-1 2-34 24-3 2-1-1c13-26 24-52 34-79s-17-54-17-54l1-2 2 1 15 50c14-38 27-76 36-116l3 1-15 54 38-25c1-1 3 0 3 1Z" class="g"/>
  <path d="M595 1528c-56 1-84-91-67-142 6-20 18-37 34-47 67-40 68-115 50-156 34 21 92 79 102 141 24 64-53 207-119 204Zm23-337c14 49 11 108-54 151-63 40-41 166 21 182 71 15 149-135 127-200-13-61-57-106-94-133Z" class="ag"/>
  <path d="M623 1703c0-2-7-46-3-113 0-53 51-60 76-51l-3 10c-21-7-63-4-63 42-4 66 3 110 3 110l-10 2Z" class="m"/>
  <path d="M1016 1601s-136 162-287 25 94-195 141-96c46 98 146 71 146 71Z" class="y"/>
  <path d="m918 1607-2 1-60 13c18 9 38 17 58 23l-1 3c-21-6-42-15-62-25l-4-2c-21-11-40-23-59-35-1 1 16 45 12 45l-2-1-14-47-58-41-2-2 2-2 5 4 57-1 1 2-1 1-53 1 47 33 4 3c21 14 43 27 65 39l65-14 2 2Z" class="g"/>
  <path d="M856 1683c-115 6-281-183-88-204 41-2 86 14 103 50 31 72 105 82 149 69-27 34-99 87-164 85Zm-81-201c-203 15-25 214 92 198 62-5 112-43 144-77-50 9-108-2-143-72-17-36-59-49-93-49Z" class="ag"/>
  <path d="M727 1666v219a46 46 0 0 1-45 46H549c-25 0-45-21-45-46v-219c0-5 4-9 8-9h207c5 0 8 4 8 9Z" class="l"/>
  <path d="M727 1699v186c1 21-16 41-37 45 24-24 19-64 19-64v-146l-113-21h131Z" class="ab"/>
  <path d="M757 1661c-3 41 11 38-30 38v-10l-104 2 23 8H479c-2 0-5-2-5-5v-33c0-3 3-5 5-5h273c2 0 5 2 5 5Z" class="l"/>
  <path d="M682 1934H549c-26 0-48-22-48-49 2 0-5-197 3-186 11 236-59 237 178 232 24 0 46-22 45-46v-186c8-10 1 186 3 186 1 26-22 49-48 49ZM719 1657c-2-1-209 3-208-1-1-5 206 0 208-2 2 0 2 3 0 3Z" class="ag"/>
  <path d="M752 1700H479c-3 0-6-3-6-6v-33c0-4 3-7 6-7h273c3 0 6 3 6 7v33c0 3-3 6-6 6Zm-273-43c-1 0-3 2-3 4v33c0 2 2 3 3 3h273c2 0 3-1 3-3v-33c0-2-1-4-3-4H479Z" class="ag"/>
  <path d="M3830 720h262c6 0 10-5 10-10V532c0-5-4-10-10-10h-252c-5 0-10 5-10 10v188Z" class="n"/>
  <rect width="35.1" height="35.1" x="4010.4" y="603.5" class="g" rx="5" ry="5"/>
  <rect width="35.1" height="35.1" x="3948.6" y="603.5" class="g" rx="5" ry="5"/>
  <rect width="35.1" height="35.1" x="3886.9" y="603.5" class="g" rx="5" ry="5"/>
  <path d="M3830 720v75l107-75h-107z" class="j"/>
  <path d="M4092 721h-263V532c0-6 5-11 11-11h252c6 0 12 5 12 11v178c0 6-6 11-12 11Zm-260-3h260c5 0 9-3 9-8V532c0-4-4-8-9-8h-252c-4 0-8 4-8 8v186Z" class="ag"/>
  <path d="M3829 798v-80h113l-113 80Zm3-77v72l101-72h-101Z" class="ag"/>
  <path d="M2186 457h262c6 0 10-5 10-10V269c0-5-4-10-10-10h-252c-5 0-10 5-10 10v188Z" class="l"/>
  <rect width="35.1" height="35.1" x="2366.3" y="340.5" class="g" rx="5" ry="5"/>
  <rect width="35.1" height="35.1" x="2304.6" y="340.5" class="g" rx="5" ry="5"/>
  <rect width="35.1" height="35.1" x="2242.8" y="340.5" class="g" rx="5" ry="5"/>
  <path d="M2186 457v75l107-75h-107z" class="t"/>
  <path d="M2448 458h-263V269c0-6 5-11 11-11h252c6 0 12 5 12 11v178c0 6-6 11-12 11Zm-260-3h260c5 0 9-3 9-8V269c0-4-4-8-9-8h-252c-4 0-8 4-8 8v186Z" class="ag"/>
  <path d="M2185 535v-80h113l-113 80Zm3-77v72l101-72h-101Z" class="ag"/>
  <path d="M470 642c7 433 651 433 658 0-7-432-651-432-658 0Z" class="s"/>
  <path d="M654 393c-325 196-41 684 290 499 325-197 41-684-290-499Z" class="g"/>
  <path d="M796 431c3 0 8 1 8-2v-38c0-4-5-2-8-3l-2 3v38l2 2Z" class="s"/>
  <path d="M788 648c4 8 15 9 21 2l142-170a13 13 0 0 0-20-17c0 8-160 178-143 185Z" class="m"/>
  <path d="M621 569c2 2 3 4 6 5l167 80a13 13 0 1 0 11-23l-167-80c-11-5-23 8-17 18Z" class="m"/>
  <path d="M784 617c-32 20-4 69 30 50 33-19 4-69-30-50ZM1010 639c0 3-1 8 3 8h37c4 0 3-5 3-8 0-1-1-2-3-2h-37c-2 0-3 1-3 2ZM802 853c-2 0-8-1-8 3v37c0 4 6 3 8 3 1 0 2-1 2-3v-37c0-2-1-3-2-3ZM588 645c0-2 1-8-2-8h-38c-4 0-2 6-3 8l3 2h38l2-2Z" class="s"/>
  <path d="M926 422c3 2 3 5 2 8-3 3-7 19-15 14-2-1-3-4-2-7 3-4 8-19 15-15ZM1019 515c1 3 0 6-2 8-5 1-16 12-20 5-2-3-1-6 2-7 4-2 16-13 20-6ZM1019 769c-2 3-5 3-7 2-4-3-19-7-15-15 1-2 5-3 7-2 4 4 19 8 15 15ZM926 862c-3 1-6 1-7-2-2-5-13-16-6-20 3-1 6-1 8 2 1 4 12 16 5 20ZM672 862c-2-2-3-5-2-7 3-4 8-19 15-15 2 1 3 5 2 7-3 4-8 19-15 15ZM579 769c-1-3 0-6 2-7 5-2 16-13 20-6 2 3 1 6-2 8-4 1-16 12-20 5ZM579 515c2-2 5-3 8-2 3 3 19 8 14 15-1 3-4 3-7 2-4-3-19-7-15-15ZM672 422c3-1 6 0 8 2 1 5 12 16 5 20-3 2-6 1-7-2-2-4-13-16-6-20Z" class="m"/>
  <path d="M799 973c-437-13-437-648 0-661 437 13 437 648 0 661Zm0-658c-430 7-430 647 0 655 431-8 430-648 0-655Zm0 617c-383-11-383-568 0-580 384 12 383 569 0 580Zm0-577c-377 7-377 568 0 574 377-7 377-567 0-574Z" class="ag"/>
</svg>